# xmcd
#
# Track frame offsets:
#	150
#	37320
#	74933
#	116935
#
# Disc length: 2055 seconds
#
# Revision: 675404345
# Processed by: cddbd v1.5.2PL0 Copyright (c) Steve Scherf et al.
# Submitted via: EZCDAudioConverter 8.0.2.1
#
DISCID=45080504
DTITLE=Lưu Hồng, Giao Linh, Hải Lý, Phượng Vũ - Tango Kỷ Niệm
DYEAR=1993
DGENRE=Drum and Bass
TTITLE0=Part 1. Tango Kỷ Niệm
TTITLE1=Part 2. Tango Kỷ Niệm
TTITLE2=Part 3. Tango Kỷ Niệm
TTITLE3=Part 4. Tango Kỷ Niệm
EXTD=
EXTT0=
EXTT1=
EXTT2=
EXTT3=
PLAYORDER=
